<svg width="150" height="45" viewBox="0 0 150 45" fill="none" xmlns="http://www.w3.org/2000/svg">
  <path d="M31.5 9L15 21L31.5 33L48 21L31.5 9Z" fill="#FFDE00" stroke="#FFDE00" strokeWidth="1"/>
  <path d="M31.5 5L10 19V21L31.5 37L53 21V19L31.5 5Z" stroke="#FFDE00" strokeWidth="1.5"/>
  <path d="M5 16.5H11L13.5 25L16 16.5H22L16.5 33H10.5L5 16.5Z" fill="#FF0000"/>
  <path d="M23 16.5H28.5V29.5C28.5 31 29.5 32 31 32H35V16.5H40.5V33H32C27 33 23 30 23 25V16.5Z" fill="#FF0000"/>
  <path d="M42 16.5H55C58 16.5 60 18.5 60 21.5V33H54.5V22.5C54.5 21.5 54 21 53 21H47.5V33H42V16.5Z" fill="#FF0000"/>
  <path d="M62 16.5H77C80 16.5 82 18.5 82 21.5V28C82 31 80 33 77 33H62V16.5ZM67.5 28.5H75C75.8 28.5 76.5 27.8 76.5 27V22.5C76.5 21.7 75.8 21 75 21H67.5V28.5Z" fill="#FF0000"/>
  <path d="M84 16.5H89.5V25H96.5V16.5H102V33H96.5V29.5H89.5V33H84V16.5Z" fill="#FF0000"/>
  <path d="M104 16.5H117C120 16.5 122 18.5 122 21.5V22.5H116.5V22C116.5 21.5 116 21 115.5 21H110.5C110 21 109.5 21.5 109.5 22V27.5C109.5 28 110 28.5 110.5 28.5H115.5C116 28.5 116.5 28 116.5 27.5V27H122V28C122 31 120 33 117 33H104C101 33 99 31 99 28V21.5C99 18.5 101 16.5 104 16.5Z" fill="#FF0000"/>
  <path d="M123 16.5H139V21H128.5V22.5H138V26.5H128.5V28.5H139V33H123V16.5Z" fill="#FF0000"/>
  <path d="M140 16.5H145.5V25L152.5 16.5H158L150 26.5L158 33H152.5L145.5 25V33H140V16.5Z" fill="#FF0000"/>
</svg> 