<svg xmlns="http://www.w3.org/2000/svg" viewBox="0 0 24 24" fill="none">
  <circle cx="12" cy="12" r="12" fill="#3498db"/>
  <path d="M18 14.4v2.4a1.6 1.6 0 01-1.744 1.6 15.825 15.825 0 01-6.904-2.456 15.6 15.6 0 01-4.8-4.8A15.833 15.833 0 012.096 4.24 1.6 1.6 0 013.696 2.498h2.4a1.6 1.6 0 011.6 1.376c.102.768.29 1.522.56 2.248a1.6 1.6 0 01-.36 1.688l-1.016 1.016a12.8 12.8 0 004.8 4.8l1.016-1.016a1.6 1.6 0 011.688-.36c.726.27 1.48.458 2.248.56a1.6 1.6 0 011.368 1.6z" stroke="white" strokeWidth="1.5" strokeLinecap="round" strokeLinejoin="round" fill="white"/>
</svg> 