<svg xmlns="http://www.w3.org/2000/svg" viewBox="0 0 24 24">
  <path fill="#00ff00" d="M12 2C6.486 2 2 6.486 2 12c0 1.684.42 3.265 1.153 4.653L2 22l5.347-1.153C8.735 21.58 10.316 22 12 22c5.514 0 10-4.486 10-10S17.514 2 12 2zm0 18c-1.468 0-2.838-.41-4-1.12l-2.842.61.61-2.842C4.88 14.838 4.47 13.468 4.47 12c0-4.187 3.343-7.53 7.53-7.53s7.53 3.343 7.53 7.53-3.343 7.53-7.53 7.53zm4.537-5.55c-.216-.117-1.27-.726-1.467-.808-.197-.082-.34-.117-.483.118-.144.235-.556.807-.68.97-.126.163-.249.184-.463.065-.214-.117-.906-.38-1.725-1.212-.638-.639-1.07-1.429-1.193-1.669-.126-.24-.014-.368.094-.488.095-.105.21-.274.315-.41.105-.138.141-.236.211-.394.071-.16.036-.296-.018-.41-.053-.117-.482-1.258-.678-1.717-.18-.458-.365-.393-.501-.402-.13-.007-.28-.009-.424-.009-.147 0-.34.054-.52.27-.179.216-.683.782-.683 1.904s.698 2.212.797 2.365c.099.154 1.396 2.215 3.384 3.105.472.207.841.332 1.128.426.474.15.904.128 1.246.078.38-.056 1.17-.527 1.335-1.038.165-.51.165-.947.116-1.037-.05-.09-.184-.146-.392-.244z"/>
</svg> 